<?xml version="1.0" encoding="UTF-8"?>
<svg id="Layer_1" xmlns="http://www.w3.org/2000/svg" version="1.1" viewBox="0 0 680.79 234.88">
  <!-- Generator: Adobe Illustrator 30.2.1, SVG Export Plug-In . SVG Version: 2.1.1 Build 1)  -->
  <g>
    <g id="nyckbI">
      <g>
        <path d="M294.1,136.11s-35.87,5.98-36.3,7.74c-1.81,7.34-6.81,14.48-14.19,16.04-4.82,1.02-15.32,1.76-18.36-2.97-2.99-4.65.56-11.18,5.91-13.67,4.3-2,8.89-3.07,13.61-3.77l51.06-10.82c1.05-5.14,2.02-10.16,2.56-15.29,1.63-15.58-11.52-22.6-24.93-24.37-15.95-2.1-37.17-.56-51.7,7.19-4.92,2.62-8.45,7.45-10.51,12.52l-3.74,9.21c14.41-5.2,36.99-11.03,51.23-8.05,4.08.85,6.23,3.99,5.47,8.12-.09.5-.18,1.7-.56,1.89-.38.18-1.12.31-1.8.39l-21.54,2.61c-8.98,1.09-17.65,2.68-25.89,6.28-12.71,5.56-21.94,14.53-22.06,29.19-.09,11.31,8.58,18.74,18.83,20.68,13.98,2.64,43.27-.72,43.27-.72l33.3-.06c-.19-5.26-.11-9.59.85-14.28l5.5-27.85h-.01Z"/>
        <path d="M363.26,113.73c-8.82-1.02-16.12,2.96-19.92,10.68-1.69,3.8-2.58,7.83-3.11,12.16l-8.35,41.74-35.07-.15,17.5-87.33,34.69-.03-1.63,9.55c12.29-10.91,28.99-14.65,44.41-9.72,13.55,4.33,18.49,13.93,18.04,27.84l-3.31,17.87-8.6,41.93-35.2-.03,9.95-49.09c.66-3.38.61-6.58-.4-9.71-1.71-3.61-4.92-5.24-9.01-5.71h.01Z"/>
      </g>
    </g>
    <g>
      <path d="M108.86,70.52l-25.53,6.03c-4.33,1.42-8.4,2.88-12.09,5.38-2.79,2.09-4.57,4.48-5.54,7.97l-19.15,77.59,39.14.04,8.65-36.31,7.96-34.59,6.55-26.1h0Z"/>
      <path d="M216.99,60.35c-.79-17.45-15.49-24.75-30.3-29.08-8.62-2.35-16.92-3.02-26.01-3.76l-79.65-.06-13.76,46.57c18.65-9.2,37.55-15.07,57.61-18.33,8-1.17,15.54-1.55,23.49-1,4.73.66,9.28,1.44,13.53,3.42,5.17,2.42,6.84,8.15,4.05,13.19-1.86,3.36-5,5.67-8.25,7.94-7.42,4.25-15.15,6.85-23.38,9.47l-24.66,6.09-8.6,34.68,20.24-5.2,14.67,21.74c.57.82,1.14,1.63,1.71,2.44,6.23,9.44,25.6,44.66-7.86,75.86,0,0,110.64-15.14,29.42-110.62,16.88-5.66,34.13-11.56,46.55-24.22,7.7-7.95,11.7-18.12,11.2-29.12h0Z"/>
    </g>
    <g>
      <polygon points="419.37 51.41 431.59 58.51 415.31 144 408.43 178.24 445.03 178.16 473.95 27.46 419.37 51.41"/>
      <polygon points="488.58 132.64 529.64 90.86 490.58 90.8 462.99 125.15 458.98 145.13 476.2 178.25 517.96 178.13 498.59 147.77 488.58 132.64"/>
    </g>
  </g>
  <path d="M617.04,136.11s-35.87,5.98-36.3,7.74c-1.81,7.34-6.81,14.48-14.19,16.04-4.82,1.02-15.32,1.76-18.36-2.97-2.99-4.65.56-11.18,5.91-13.67,4.3-2,8.89-3.07,13.61-3.77l51.06-10.82c1.05-5.14,2.02-10.16,2.56-15.29,1.63-15.58-11.52-22.6-24.93-24.37-15.95-2.1-37.17-.56-51.7,7.19-4.92,2.62-8.45,7.45-10.51,12.52l-3.74,9.21c14.41-5.2,36.99-11.03,51.23-8.05,4.08.85,6.23,3.99,5.47,8.12-.09.5-.18,1.7-.56,1.89-.38.18-1.12.31-1.8.39l-21.54,2.61c-8.98,1.09-17.65,2.68-25.89,6.28-12.71,5.56-21.94,14.53-22.06,29.19-.09,11.31,8.58,18.74,18.83,20.68,13.98,2.64,43.27-.72,43.27-.72l33.3-.06c-.19-5.26-.11-9.59.85-14.28l5.5-27.85h-.01,0Z"/>
</svg>